<svg width="48" height="48" viewBox="0 0 32 32" fill="none" xmlns="http://www.w3.org/2000/svg">
  <defs>
    <linearGradient id="nectarGrad" x1="4" y1="4" x2="28" y2="28" gradientUnits="userSpaceOnUse">
      <stop offset="0%" stop-color="#f59e0b" />
      <stop offset="50%" stop-color="#10b981" />
      <stop offset="100%" stop-color="#059669" />
    </linearGradient>
    <linearGradient id="nectarCore" x1="12" y1="10" x2="20" y2="22" gradientUnits="userSpaceOnUse">
      <stop offset="0%" stop-color="#fbbf24" />
      <stop offset="100%" stop-color="#10b981" />
    </linearGradient>
  </defs>
  <rect width="32" height="32" rx="7" fill="#070c09" />
  <path d="M16 2.5L28 9.4V22.6L16 29.5L4 22.6V9.4L16 2.5Z" stroke="url(#nectarGrad)" stroke-width="2" stroke-linecap="round" stroke-linejoin="round" fill="rgba(16, 185, 129, 0.12)" />
  <path d="M16 7.5V12M24 12L20 14.5M24 20L20 17.5M16 24.5V20M8 20L12 17.5M8 12L12 14.5" stroke="url(#nectarGrad)" stroke-width="1.5" stroke-linecap="round" opacity="0.85" />
  <circle cx="16" cy="16" r="3.75" fill="url(#nectarCore)" />
  <circle cx="16" cy="5.5" r="1.5" fill="#f59e0b" />
  <circle cx="25.5" cy="11" r="1.5" fill="#10b981" />
  <circle cx="25.5" cy="21" r="1.5" fill="#10b981" />
  <circle cx="16" cy="26.5" r="1.5" fill="#059669" />
  <circle cx="6.5" cy="21" r="1.5" fill="#10b981" />
  <circle cx="6.5" cy="11" r="1.5" fill="#f59e0b" />
</svg>